<svg width="5" height="8" viewBox="0 0 5 8" fill="none" xmlns="http://www.w3.org/2000/svg">
<path d="M4 3.53704C3.74431 3.53704 3.53704 3.74431 3.53704 4C3.53704 4.25569 3.74431 4.46296 4 4.46296V3.53704ZM4.41996 4.32736C4.60076 4.14657 4.60076 3.85343 4.41996 3.67264L1.47368 0.726357C1.29288 0.545559 0.999748 0.545559 0.81895 0.726357C0.638152 0.907156 0.638152 1.20029 0.81895 1.38109L3.43786 4L0.81895 6.61891C0.638152 6.79971 0.638152 7.09284 0.81895 7.27364C0.999748 7.45444 1.29288 7.45444 1.47368 7.27364L4.41996 4.32736ZM4 4.46296H4.09259V3.53704H4V4.46296Z" fill="black"/>
</svg>
