<svg width="36" height="21" viewBox="0 0 36 21" fill="none" xmlns="http://www.w3.org/2000/svg">
<path d="M0.71854 0.121344C0.583813 0.169387 0.370497 0.373569 0.235771 0.55373C0 0.87802 0 0.914053 0 7.51996V14.1739V14.9546H0.651176L2.96398 14.9906C5.61359 15.0387 6.27599 14.9186 7.21908 14.234C7.94884 13.7175 8.3867 13.129 8.72352 12.2282C9.23997 10.883 9.01543 9.08136 8.19584 7.98838C8.00498 7.73615 7.85903 7.51996 7.85903 7.50795C7.85903 7.49594 8.00498 7.27974 8.19584 7.02752C9.28488 5.56221 9.2512 3.16006 8.12848 1.6347C7.66816 1.01014 6.76999 0.397591 5.99531 0.181397C5.26555 -0.0227852 1.1564 -0.0708284 0.71854 0.121344ZM5.74832 2.78773C6.94962 3.52038 6.94962 5.24993 5.74832 5.98258C5.35536 6.2228 5.14205 6.24682 3.82847 6.24682H2.35771V4.38516V2.52349H3.82847C5.14205 2.52349 5.35536 2.54751 5.74832 2.78773ZM5.74832 9.03331C6.94962 9.76597 6.94962 11.4955 5.74832 12.2282C5.35536 12.4684 5.14205 12.4924 3.82847 12.4924H2.35771V10.6307V8.76908H3.82847C5.14205 8.76908 5.35536 8.7931 5.74832 9.03331Z" fill="black"/>
<path d="M11.6897 0.0794401C11.5632 0.139659 11.3563 0.30827 11.2299 0.452795C11.0115 0.705713 11 0.886368 11 6.34217V11.9545V12.1352C11 12.3781 11.0065 12.6249 11.0901 12.8529C11.5213 14.0289 13.1513 14.8128 14.3563 14.9775C15.4023 15.11 16 14.6523 16 13.737C15.9885 13.0505 15.4713 12.4965 14.8276 12.4965C14.4023 12.4965 13.7931 12.087 13.5632 11.6414C13.3678 11.268 13.3563 10.8465 13.3563 6.08925C13.3563 2.50023 13.3218 0.850238 13.2299 0.645494C13 0.139659 12.2299 -0.14939 11.6897 0.0794401Z" fill="black"/>
<path d="M20.5889 7.20256C19.5333 7.62105 18.8111 8.31484 18.3111 9.38307C18.0444 9.9337 18 10.165 18 11.0129C18 11.8499 18.0444 12.1032 18.3 12.6318C19.7556 15.7374 24.1111 15.8035 25.6778 12.7419C25.9667 12.1693 26 12.0041 26 11.0129C26 10.0548 25.9667 9.83459 25.7 9.28396C25.3222 8.48003 24.5556 7.72016 23.7444 7.34573C22.9 6.94927 21.3889 6.8832 20.5889 7.20256ZM22.9444 9.54826C23.9889 10.2531 23.9667 11.6517 22.9111 12.4336C22.4778 12.7529 21.5222 12.7529 21.1 12.4336C20.3222 11.8609 20.0889 11.068 20.4889 10.2751C20.9222 9.36105 22.1444 9.00864 22.9444 9.54826Z" fill="black"/>
<path d="M30.514 7.26653C28.9332 7.96182 28.011 9.37557 28 11.1138C28 12.8868 28.8673 14.3469 30.3274 15.0538C31.2935 15.5173 32.2376 15.5521 33.4672 15.1581L33.7307 15.0769L33.6868 16.2474C33.6538 17.4989 33.5441 17.7886 32.8963 18.2869C32.4792 18.6229 31.535 18.6229 31.1069 18.2869C30.6348 17.916 30.3384 17.383 30.2615 16.7456C30.1188 15.6332 29.0539 15.1697 28.3403 15.9345C28.0439 16.2358 28 16.3748 28 16.8847C28.011 18.959 29.5919 20.7551 31.5899 20.9753C33.3025 21.1723 34.9163 20.1757 35.6629 18.4955C35.8584 18.0598 35.9616 17.5884 35.966 17.111L35.9922 14.2658C36.0252 10.2679 35.9812 9.88545 35.3006 8.79616C34.5431 7.61417 33.4343 7 32.0071 7C31.3374 7 30.9751 7.06953 30.514 7.26653ZM32.9732 9.73481C33.9612 10.4996 33.9283 11.925 32.8963 12.7246C32.4792 13.0606 31.535 13.0606 31.1069 12.7246C30.525 12.2726 30.2835 11.7627 30.3274 11.1022C30.4152 10.0245 31.1069 9.38716 32.1279 9.46828C32.4462 9.49145 32.7975 9.59575 32.9732 9.73481Z" fill="black"/>
</svg>
