<svg aria-hidden="true" style="position: absolute; width: 0; height: 0; overflow: hidden;" version="1.1"
    xmlns="http://www.w3.org/2000/svg"
    xmlns:xlink="http://www.w3.org/1999/xlink">
    <defs>
        <symbol id="icon-arrow" viewBox="0 0 20 32">
            <path d="M16 14.148c-1.023 0-1.852 0.829-1.852 1.852s0.829 1.852 1.852 1.852v-3.704zM17.68 17.309c0.723-0.723 0.723-1.896 0-2.619l-11.785-11.785c-0.723-0.723-1.896-0.723-2.619 0s-0.723 1.896 0 2.619l10.476 10.476-10.476 10.476c-0.723 0.723-0.723 1.896 0 2.619s1.896 0.723 2.619 0l11.785-11.785zM16 17.852h0.37v-3.704h-0.37v3.704z"></path>
        </symbol>
        <symbol id="icon-blog" viewBox="0 0 55 32">
            <path d="M1.095 0.185c-0.205 0.073-0.53 0.384-0.736 0.659-0.359 0.494-0.359 0.549-0.359 10.615v11.329h0.992l3.524 0.055c4.037 0.073 5.047-0.11 6.484-1.153 1.112-0.787 1.779-1.684 2.292-3.056 0.787-2.050 0.445-4.795-0.804-6.461-0.291-0.384-0.513-0.714-0.513-0.732s0.222-0.348 0.513-0.732c1.659-2.233 1.608-5.893-0.103-8.218-0.701-0.952-2.070-1.885-3.251-2.215-1.112-0.311-7.374-0.384-8.041-0.091zM8.759 4.248c1.831 1.116 1.831 3.752 0 4.868-0.599 0.366-0.924 0.403-2.925 0.403h-2.241v-5.674h2.241c2.002 0 2.327 0.037 2.925 0.403zM8.759 13.765c1.831 1.116 1.831 3.752 0 4.868-0.599 0.366-0.924 0.403-2.925 0.403h-2.241v-5.674h2.241c2.002 0 2.327 0.037 2.925 0.403z"></path>
            <path d="M17.813 0.121c-0.193 0.092-0.508 0.349-0.701 0.569-0.333 0.385-0.35 0.661-0.35 8.974v8.827c0 0.37 0.010 0.746 0.137 1.094 0.657 1.792 3.141 2.986 4.977 3.238 1.594 0.202 2.505-0.496 2.505-1.89-0.018-1.046-0.806-1.89-1.787-1.89-0.648 0-1.576-0.624-1.927-1.303-0.298-0.569-0.315-1.211-0.315-8.46 0-5.469-0.053-7.983-0.193-8.295-0.35-0.771-1.524-1.211-2.347-0.863z"></path>
            <path d="M31.374 10.975c-1.609 0.638-2.709 1.695-3.471 3.323-0.406 0.839-0.474 1.191-0.474 2.484 0 1.275 0.068 1.661 0.457 2.467 2.218 4.732 8.855 4.833 11.242 0.168 0.44-0.873 0.491-1.124 0.491-2.635 0-1.46-0.051-1.796-0.457-2.635-0.576-1.225-1.744-2.383-2.98-2.954-1.287-0.604-3.589-0.705-4.808-0.218zM34.963 14.55c1.592 1.074 1.558 3.205-0.051 4.397-0.66 0.487-2.116 0.487-2.76 0-1.185-0.873-1.541-2.081-0.931-3.289 0.66-1.393 2.523-1.93 3.742-1.108z"></path>
            <path d="M46.498 11.073c-2.409 1.059-3.814 3.214-3.831 5.862 0 2.702 1.322 4.927 3.547 6.004 1.472 0.706 2.911 0.759 4.784 0.159l0.402-0.124-0.067 1.784c-0.050 1.907-0.217 2.349-1.205 3.108-0.636 0.512-2.074 0.512-2.727 0-0.719-0.565-1.171-1.377-1.288-2.349-0.217-1.695-1.84-2.401-2.928-1.236-0.452 0.459-0.519 0.671-0.519 1.448 0.017 3.161 2.426 5.898 5.47 6.233 2.61 0.3 5.069-1.218 6.206-3.779 0.298-0.664 0.455-1.382 0.462-2.11l0.040-4.336c0.050-6.092-0.017-6.675-1.054-8.335-1.154-1.801-2.844-2.737-5.019-2.737-1.020 0-1.573 0.106-2.275 0.406zM50.245 14.834c1.506 1.165 1.455 3.337-0.117 4.556-0.636 0.512-2.074 0.512-2.727 0-0.887-0.689-1.255-1.466-1.188-2.472 0.134-1.642 1.188-2.613 2.744-2.49 0.485 0.035 1.020 0.194 1.288 0.406z"></path>
        </symbol>
        <symbol id="icon-tutorial" viewBox="0 0 26 32">
            <path d="M4.383 0.1c-1.743 0.375-3.341 1.712-4 3.35-0.418 1.031-0.393 0.225-0.374 12.769 0.019 12.769-0.025 11.569 0.501 12.65 0.628 1.3 1.648 2.25 2.986 2.775 0.938 0.375 0.412 0.356 11.424 0.356h10.093l0.323-0.156c1.141-0.563 1.122-2.269-0.025-2.825-0.273-0.125-0.374-0.219-0.444-0.387-0.19-0.444-0.336-1.337-0.336-2.075 0-0.781 0.057-1.212 0.266-1.913 0.127-0.431 0.139-0.45 0.406-0.55 0.336-0.125 0.799-0.613 0.9-0.956 0.057-0.187 0.076-2.887 0.076-11.056 0-11.775 0.019-11.069-0.349-11.55-0.095-0.119-0.317-0.281-0.495-0.375l-0.323-0.156-10.112 0.006c-8.324 0.006-10.188 0.019-10.518 0.094zM24.892 1.056c0.076 0.050 0.165 0.163 0.203 0.238 0.051 0.106 0.070 3.369 0.070 10.831v10.675l-0.33 0.387h-18.753v-1.244c0-1.281-0.044-1.581-0.254-1.694-0.19-0.1-0.476-0.069-0.621 0.063-0.133 0.125-0.139 0.169-0.139 1.525v1.4l-0.336 0.075c-1.109 0.256-2.079 1.181-2.415 2.306-0.146 0.487-0.133 1.388 0.025 1.894 0.342 1.087 1.274 1.938 2.46 2.237l0.266 0.069v0.588c0 0.431-0.019 0.594-0.076 0.594-0.254-0.006-0.976-0.225-1.414-0.438-1.211-0.575-2.118-1.662-2.441-2.913-0.127-0.469-0.127-0.737-0.127-11.619 0-10.875 0-11.15 0.127-11.619 0.209-0.8 0.577-1.425 1.236-2.069 0.437-0.438 0.691-0.631 1.090-0.831 0.425-0.219 1.319-0.512 1.553-0.512 0.025 0 0.051 3.994 0.051 8.869v8.875l0.165 0.125c0.222 0.175 0.425 0.163 0.64-0.019l0.178-0.15 0.019-8.881 0.013-8.881 9.338 0.012c8.013 0.019 9.351 0.031 9.472 0.106zM23.834 24.219c0 0.019-0.044 0.219-0.101 0.437l-0.101 0.406h-5.82c-4.083 0-5.871 0.019-6.017 0.069-0.342 0.119-0.437 0.519-0.184 0.788l0.133 0.144h11.773v0.875l-9.091 0.012c-8.838 0.019-9.091 0.025-9.224 0.137-0.178 0.163-0.184 0.55-0.006 0.725 0.127 0.125 0.209 0.125 9.275 0.125h9.155l0.076 0.325c0.038 0.181 0.089 0.394 0.108 0.469l0.038 0.144h-9.053c-5.237 0-9.231-0.025-9.465-0.063-0.824-0.113-1.56-0.637-1.921-1.362-0.12-0.25-0.146-0.387-0.146-0.919 0-0.556 0.019-0.663 0.178-0.981 0.203-0.413 0.647-0.875 1.002-1.056 0.621-0.306 0.279-0.3 10.156-0.3 5.078-0.006 9.237 0.006 9.237 0.025zM24.892 29.931c0.247 0.169 0.336 0.487 0.203 0.775-0.159 0.344 0.431 0.325-9.675 0.344l-9.338 0.012v-1.25l9.338 0.012c8.013 0.019 9.351 0.031 9.472 0.106z"></path>
            <path d="M14.291 2.996c-1.080 0.349-1.769 1.395-1.677 2.534 0.142 1.716 1.883 2.705 3.495 1.993 1.122-0.498 1.669-2.022 1.144-3.189-0.234-0.52-0.739-1.025-1.236-1.246-0.433-0.192-1.272-0.242-1.726-0.093zM15.548 4.143c0.831 0.399 1.023 1.452 0.384 2.093-0.696 0.698-1.819 0.413-2.131-0.541-0.334-1.011 0.789-2.008 1.748-1.552z"></path>
            <path d="M12.69 8.845c-0.308 0.136-0.508 0.335-0.643 0.639-0.141 0.329-0.141 2.065 0 2.394 0.231 0.527 0.559 0.701 1.362 0.744l0.598 0.031v2.896h-0.72c-0.893 0-1.182 0.105-1.452 0.546-0.167 0.279-0.174 0.341-0.193 1.228-0.026 1.067 0.026 1.352 0.328 1.681 0.366 0.403 0.263 0.391 4.061 0.391 3.309 0 3.451-0.006 3.695-0.124 0.135-0.068 0.328-0.223 0.43-0.354 0.18-0.223 0.18-0.236 0.199-1.284 0.026-1.259 0.006-1.395-0.263-1.693-0.296-0.329-0.514-0.391-1.33-0.391h-0.707v-0.459c0-0.515-0.090-0.819-0.257-0.905-0.199-0.099-0.508-0.068-0.643 0.062-0.116 0.112-0.128 0.205-0.128 1.073 0 1.247-0.071 1.178 1.279 1.222l1.002 0.031v1.798l-3.238 0.019c-2.339 0.006-3.264-0.006-3.322-0.056-0.122-0.099-0.129-1.625-0.006-1.718 0.045-0.037 0.508-0.074 1.067-0.087 0.944-0.019 0.989-0.025 1.105-0.167 0.116-0.136 0.122-0.273 0.122-2.294v-2.158l-0.148-0.13c-0.135-0.124-0.218-0.136-0.906-0.136-0.411 0-0.81-0.031-0.88-0.062-0.109-0.062-0.122-0.136-0.122-0.893 0-0.626 0.019-0.843 0.090-0.899 0.058-0.050 0.643-0.068 2.005-0.056l1.921 0.019 0.019 1.47 0.013 1.47 0.173 0.124c0.218 0.174 0.424 0.161 0.643-0.019l0.18-0.149 0.019-1.389c0.026-1.606-0.019-1.922-0.328-2.208-0.116-0.105-0.289-0.223-0.386-0.254-0.116-0.043-0.951-0.068-2.281-0.068-1.908 0-2.127 0.012-2.358 0.118z"></path>
            <path d="M6.182 24.269c-0.369 0.123-0.489 0.58-0.213 0.82 0.135 0.117 0.234 0.123 2.759 0.123h2.624l0.142-0.16c0.199-0.216 0.184-0.413-0.021-0.623l-0.17-0.173-2.511-0.012c-1.376-0.006-2.553 0.006-2.61 0.025z"></path>
        </symbol>
        <symbol id="icon-team" viewBox="0 0 39 32">
            <path d="M19.429 0c-0.728 0-1.449 0.138-2.122 0.406s-1.284 0.66-1.799 1.155c-0.515 0.495-0.923 1.083-1.202 1.729s-0.422 1.34-0.422 2.040 0.143 1.393 0.422 2.040c0.279 0.647 0.687 1.234 1.202 1.729s1.126 0.888 1.799 1.155c0.673 0.268 1.394 0.406 2.122 0.406 1.471 0 2.881-0.562 3.921-1.561s1.624-2.355 1.624-3.769c0-1.414-0.584-2.769-1.624-3.769s-2.451-1.561-3.921-1.561zM31.918 2.662c-1.104 0-2.163 0.422-2.944 1.172s-1.219 1.768-1.219 2.83c0 1.061 0.439 2.079 1.219 2.83s1.84 1.172 2.944 1.172c1.104 0 2.163-0.422 2.944-1.172s1.219-1.768 1.219-2.83-0.439-2.079-1.219-2.83c-0.781-0.75-1.84-1.172-2.944-1.172zM6.939 2.662c-1.104 0-2.163 0.422-2.944 1.172s-1.219 1.768-1.219 2.83c0 1.061 0.439 2.079 1.219 2.83s1.84 1.172 2.944 1.172c1.104 0 2.163-0.422 2.944-1.172s1.219-1.768 1.219-2.83c0-1.061-0.439-2.079-1.219-2.83s-1.84-1.172-2.944-1.172zM11.102 15.982c0.005-0.704 0.3-1.378 0.82-1.874s1.223-0.775 1.956-0.775h11.102c0.736 0 1.442 0.281 1.963 0.781s0.813 1.179 0.813 1.886v8.003c-0 0.84-0.137 1.674-0.405 2.473-0.614 1.811-1.881 3.351-3.571 4.346s-3.694 1.377-5.651 1.079c-1.957-0.298-3.74-1.257-5.027-2.704s-1.997-3.289-1.999-5.193v-8.022zM8.327 16.001c0-0.974 0.269-1.883 0.744-2.668h-6.295c-0.736 0-1.442 0.281-1.963 0.781s-0.813 1.179-0.813 1.886v6.669c-0 1.092 0.278 2.167 0.811 3.131s1.304 1.788 2.246 2.399 2.025 0.99 3.155 1.105c1.13 0.114 2.271-0.040 3.325-0.448-0.799-1.503-1.214-3.167-1.21-4.855v-8.001zM30.531 16.001v8.003c0 1.747-0.436 3.396-1.21 4.853 1.053 0.409 2.195 0.563 3.325 0.448s2.213-0.494 3.155-1.105c0.942-0.611 1.713-1.434 2.246-2.399s0.812-2.040 0.811-3.131v-6.669c0-0.708-0.292-1.386-0.813-1.886s-1.227-0.781-1.963-0.781h-6.295c0.472 0.784 0.744 1.694 0.744 2.668z"></path>
        </symbol>
        <symbol id="icon-close-btn" viewBox="0 0 32 32">
            <path d="M31.643 29.918c0.113 0.113 0.203 0.248 0.264 0.396s0.093 0.306 0.093 0.467-0.032 0.319-0.093 0.467c-0.061 0.148-0.151 0.282-0.264 0.396s-0.248 0.203-0.396 0.264c-0.148 0.061-0.306 0.093-0.467 0.093s-0.319-0.032-0.467-0.093c-0.148-0.061-0.282-0.151-0.396-0.264l-13.918-13.898-13.918 13.898c-0.229 0.229-0.539 0.357-0.862 0.357s-0.634-0.128-0.862-0.357c-0.229-0.229-0.357-0.539-0.357-0.862s0.128-0.633 0.357-0.862l13.898-13.918-13.898-13.918c-0.229-0.229-0.357-0.539-0.357-0.862s0.128-0.634 0.357-0.862c0.229-0.229 0.539-0.357 0.862-0.357s0.634 0.128 0.862 0.357l13.918 13.898 13.918-13.898c0.229-0.229 0.539-0.357 0.862-0.357s0.634 0.128 0.862 0.357c0.229 0.229 0.357 0.539 0.357 0.862s-0.128 0.634-0.357 0.862l-13.898 13.918 13.898 13.918z"></path>
        </symbol>
    </defs>
</svg>
