<svg width="20" height="19" viewBox="0 0 20 19" fill="none"
    xmlns="http://www.w3.org/2000/svg">
    <path d="M6.33764 9.5C6.33764 7.75116 7.75582 6.33308 9.5057 6.33308C11.2556 6.33308 12.6745 7.75116 12.6745 9.5C12.6745 11.2488 11.2556 12.6669 9.5057 12.6669C7.75582 12.6669 6.33764 11.2488 6.33764 9.5ZM4.62464 9.5C4.62464 12.1942 6.80988 14.3781 9.5057 14.3781C12.2015 14.3781 14.3868 12.1942 14.3868 9.5C14.3868 6.8058 12.2015 4.62186 9.5057 4.62186C6.80988 4.62186 4.62464 6.8058 4.62464 9.5ZM13.4393 4.42844C13.4392 4.65391 13.506 4.87435 13.6313 5.06187C13.7566 5.24939 13.9347 5.39558 14.1431 5.48195C14.3515 5.56832 14.5808 5.59098 14.8021 5.54708C15.0234 5.50319 15.2267 5.39469 15.3863 5.23532C15.5458 5.07596 15.6546 4.87287 15.6987 4.65175C15.7428 4.43063 15.7203 4.2014 15.634 3.99306C15.5478 3.78472 15.4016 3.60662 15.2141 3.48128C15.0266 3.35594 14.8061 3.28899 14.5805 3.2889H14.58C14.2776 3.28904 13.9876 3.40913 13.7737 3.62279C13.5599 3.83646 13.4396 4.12622 13.4393 4.42844V4.42844ZM5.6654 17.2328C4.73863 17.1906 4.2349 17.0363 3.90015 16.906C3.45635 16.7333 3.13969 16.5276 2.80677 16.1954C2.47384 15.8631 2.26776 15.5469 2.09574 15.1034C1.96525 14.769 1.81087 14.2654 1.76874 13.3392C1.72266 12.3378 1.71346 12.037 1.71346 9.50008C1.71346 6.96312 1.72342 6.66315 1.76874 5.66094C1.81095 4.73472 1.96646 4.23214 2.09574 3.89675C2.26852 3.45321 2.4743 3.13675 2.80677 2.80402C3.13924 2.47129 3.45559 2.26533 3.90015 2.09342C4.23475 1.963 4.73863 1.80872 5.6654 1.76662C6.66737 1.72056 6.96836 1.71137 9.5057 1.71137C12.043 1.71137 12.3443 1.72132 13.3471 1.76662C14.2739 1.8088 14.7768 1.96422 15.1124 2.09342C15.5562 2.26533 15.8728 2.47175 16.2058 2.80402C16.5387 3.13629 16.744 3.45321 16.9168 3.89675C17.0473 4.23115 17.2017 4.73472 17.2438 5.66094C17.2899 6.66315 17.2991 6.96312 17.2991 9.50008C17.2991 12.037 17.2899 12.337 17.2438 13.3392C17.2016 14.2654 17.0465 14.7689 16.9168 15.1034C16.744 15.5469 16.5382 15.8634 16.2058 16.1954C15.8733 16.5273 15.5562 16.7333 15.1124 16.906C14.7778 17.0364 14.2739 17.1907 13.3471 17.2328C12.3452 17.2788 12.0442 17.288 9.5057 17.288C6.96722 17.288 6.66707 17.2788 5.6654 17.2328V17.2328ZM5.58669 0.057532C4.57475 0.103588 3.88327 0.263948 3.27939 0.498788C2.65399 0.741304 2.12456 1.06666 1.59551 1.59456C1.06646 2.12245 0.741749 2.6524 0.499087 3.27742C0.264106 3.88132 0.10365 4.57201 0.0575665 5.58334C0.0107224 6.59627 0 6.9201 0 9.5C0 12.0799 0.0107224 12.4037 0.0575665 13.4167C0.10365 14.4281 0.264106 15.1187 0.499087 15.7226C0.741749 16.3472 1.06654 16.8778 1.59551 17.4054C2.12449 17.9331 2.65399 18.258 3.27939 18.5012C3.88441 18.7361 4.57475 18.8964 5.58669 18.9425C6.60076 18.9885 6.92426 19 9.5057 19C12.0871 19 12.4112 18.9893 13.4247 18.9425C14.4367 18.8964 15.1278 18.7361 15.732 18.5012C16.357 18.258 16.8868 17.9333 17.4159 17.4054C17.9449 16.8775 18.269 16.3472 18.5123 15.7226C18.7473 15.1187 18.9085 14.428 18.9538 13.4167C18.9999 12.403 19.0106 12.0799 19.0106 9.5C19.0106 6.9201 18.9999 6.59627 18.9538 5.58334C18.9078 4.57193 18.7473 3.88094 18.5123 3.27742C18.269 2.65278 17.9441 2.12329 17.4159 1.59456C16.8877 1.06582 16.357 0.741304 15.7328 0.498788C15.1278 0.263948 14.4366 0.102828 13.4255 0.057532C12.4119 0.011476 12.0879 0 9.50646 0C6.92502 0 6.60076 0.010716 5.58669 0.057532Z" fill="url(#paint0_radial_102_16)"/>
    <path d="M6.33764 9.5C6.33764 7.75116 7.75582 6.33308 9.5057 6.33308C11.2556 6.33308 12.6745 7.75116 12.6745 9.5C12.6745 11.2488 11.2556 12.6669 9.5057 12.6669C7.75582 12.6669 6.33764 11.2488 6.33764 9.5ZM4.62464 9.5C4.62464 12.1942 6.80988 14.3781 9.5057 14.3781C12.2015 14.3781 14.3868 12.1942 14.3868 9.5C14.3868 6.8058 12.2015 4.62186 9.5057 4.62186C6.80988 4.62186 4.62464 6.8058 4.62464 9.5ZM13.4393 4.42844C13.4392 4.65391 13.506 4.87435 13.6313 5.06187C13.7566 5.24939 13.9347 5.39558 14.1431 5.48195C14.3515 5.56832 14.5808 5.59098 14.8021 5.54708C15.0234 5.50319 15.2267 5.39469 15.3863 5.23532C15.5458 5.07596 15.6546 4.87287 15.6987 4.65175C15.7428 4.43063 15.7203 4.2014 15.634 3.99306C15.5478 3.78472 15.4016 3.60662 15.2141 3.48128C15.0266 3.35594 14.8061 3.28899 14.5805 3.2889H14.58C14.2776 3.28904 13.9876 3.40913 13.7737 3.62279C13.5599 3.83646 13.4396 4.12622 13.4393 4.42844V4.42844ZM5.6654 17.2328C4.73863 17.1906 4.2349 17.0363 3.90015 16.906C3.45635 16.7333 3.13969 16.5276 2.80677 16.1954C2.47384 15.8631 2.26776 15.5469 2.09574 15.1034C1.96525 14.769 1.81087 14.2654 1.76874 13.3392C1.72266 12.3378 1.71346 12.037 1.71346 9.50008C1.71346 6.96312 1.72342 6.66315 1.76874 5.66094C1.81095 4.73472 1.96646 4.23214 2.09574 3.89675C2.26852 3.45321 2.4743 3.13675 2.80677 2.80402C3.13924 2.47129 3.45559 2.26533 3.90015 2.09342C4.23475 1.963 4.73863 1.80872 5.6654 1.76662C6.66737 1.72056 6.96836 1.71137 9.5057 1.71137C12.043 1.71137 12.3443 1.72132 13.3471 1.76662C14.2739 1.8088 14.7768 1.96422 15.1124 2.09342C15.5562 2.26533 15.8728 2.47175 16.2058 2.80402C16.5387 3.13629 16.744 3.45321 16.9168 3.89675C17.0473 4.23115 17.2017 4.73472 17.2438 5.66094C17.2899 6.66315 17.2991 6.96312 17.2991 9.50008C17.2991 12.037 17.2899 12.337 17.2438 13.3392C17.2016 14.2654 17.0465 14.7689 16.9168 15.1034C16.744 15.5469 16.5382 15.8634 16.2058 16.1954C15.8733 16.5273 15.5562 16.7333 15.1124 16.906C14.7778 17.0364 14.2739 17.1907 13.3471 17.2328C12.3452 17.2788 12.0442 17.288 9.5057 17.288C6.96722 17.288 6.66707 17.2788 5.6654 17.2328V17.2328ZM5.58669 0.057532C4.57475 0.103588 3.88327 0.263948 3.27939 0.498788C2.65399 0.741304 2.12456 1.06666 1.59551 1.59456C1.06646 2.12245 0.741749 2.6524 0.499087 3.27742C0.264106 3.88132 0.10365 4.57201 0.0575665 5.58334C0.0107224 6.59627 0 6.9201 0 9.5C0 12.0799 0.0107224 12.4037 0.0575665 13.4167C0.10365 14.4281 0.264106 15.1187 0.499087 15.7226C0.741749 16.3472 1.06654 16.8778 1.59551 17.4054C2.12449 17.9331 2.65399 18.258 3.27939 18.5012C3.88441 18.7361 4.57475 18.8964 5.58669 18.9425C6.60076 18.9885 6.92426 19 9.5057 19C12.0871 19 12.4112 18.9893 13.4247 18.9425C14.4367 18.8964 15.1278 18.7361 15.732 18.5012C16.357 18.258 16.8868 17.9333 17.4159 17.4054C17.9449 16.8775 18.269 16.3472 18.5123 15.7226C18.7473 15.1187 18.9085 14.428 18.9538 13.4167C18.9999 12.403 19.0106 12.0799 19.0106 9.5C19.0106 6.9201 18.9999 6.59627 18.9538 5.58334C18.9078 4.57193 18.7473 3.88094 18.5123 3.27742C18.269 2.65278 17.9441 2.12329 17.4159 1.59456C16.8877 1.06582 16.357 0.741304 15.7328 0.498788C15.1278 0.263948 14.4366 0.102828 13.4255 0.057532C12.4119 0.011476 12.0879 0 9.50646 0C6.92502 0 6.60076 0.010716 5.58669 0.057532Z" fill="url(#paint1_radial_102_16)"/>
    <defs>
        <radialGradient id="paint0_radial_102_16" cx="0" cy="0" r="1" gradientUnits="userSpaceOnUse" gradientTransform="translate(2.52578 19.0898) scale(24.8178 24.8029)">
            <stop offset="0.09" stop-color="#FA8F21"/>
            <stop offset="0.78" stop-color="#D82D7E"/>
        </radialGradient>
        <radialGradient id="paint1_radial_102_16" cx="0" cy="0" r="1" gradientUnits="userSpaceOnUse" gradientTransform="translate(11.5296 19.941) scale(19.5598 19.5481)">
            <stop offset="0.64" stop-color="#8C3AAA" stop-opacity="0"/>
            <stop offset="1" stop-color="#8C3AAA"/>
        </radialGradient>
    </defs>
</svg>
