<!-- Generated by IcoMoon.io -->
<svg version="1.1" xmlns="http://www.w3.org/2000/svg" width="40" height="32" viewBox="0 0 40 32">
<title>twitter</title>
<path fill="#3cf" d="M38.647 3.844c-1.256 0.54-2.576 0.917-3.928 1.12 0.632-0.108 1.562-1.246 1.932-1.707 0.563-0.695 0.991-1.488 1.264-2.339 0-0.063 0.063-0.153 0-0.199-0.032-0.017-0.068-0.026-0.104-0.026s-0.072 0.009-0.104 0.026c-1.468 0.795-3.030 1.402-4.65 1.806-0.056 0.017-0.117 0.019-0.174 0.004s-0.11-0.044-0.151-0.086c-0.126-0.15-0.262-0.292-0.406-0.424-0.661-0.592-1.41-1.076-2.221-1.436-1.095-0.449-2.277-0.644-3.458-0.569-1.146 0.072-2.265 0.38-3.287 0.903-1.006 0.552-1.891 1.301-2.6 2.203-0.746 0.929-1.285 2.006-1.58 3.16-0.243 1.098-0.271 2.232-0.081 3.341 0 0.19 0 0.217-0.163 0.19-6.438-0.948-11.72-3.233-16.036-8.136-0.19-0.217-0.289-0.217-0.442 0-1.878 2.853-0.966 7.368 1.381 9.598 0.316 0.298 0.641 0.587 0.984 0.858-1.076-0.076-2.126-0.368-3.088-0.858-0.181-0.117-0.28-0.054-0.289 0.163-0.026 0.3-0.026 0.602 0 0.903 0.188 1.44 0.756 2.804 1.644 3.952s2.066 2.041 3.412 2.585c0.328 0.141 0.67 0.247 1.020 0.316-0.996 0.196-2.018 0.227-3.025 0.090-0.217-0.045-0.298 0.072-0.217 0.28 1.327 3.612 4.208 4.713 6.321 5.327 0.289 0.045 0.578 0.045 0.903 0.117 0 0 0 0-0.054 0.054-0.623 1.138-3.142 1.905-4.298 2.302-2.11 0.758-4.359 1.047-6.591 0.849-0.352-0.054-0.433-0.045-0.524 0s0 0.145 0.099 0.235c0.451 0.298 0.903 0.56 1.372 0.813 1.398 0.762 2.876 1.368 4.406 1.806 7.928 2.185 16.849 0.578 22.799-5.336 4.677-4.641 6.321-11.043 6.321-17.454 0-0.244 0.298-0.388 0.47-0.515 1.183-0.922 2.227-2.011 3.097-3.233 0.151-0.182 0.228-0.414 0.217-0.65 0-0.135 0-0.108-0.171-0.036z"></path>
</svg>
